<svg width="40" height="41" viewBox="0 0 40 41" fill="none" xmlns="http://www.w3.org/2000/svg">
<path d="M22.0246 32.6115C22.0605 28.9401 21.1297 25.9545 19.9457 25.9429C18.7616 25.9314 17.7727 28.8983 17.7368 32.5696C17.7009 36.2411 18.6317 39.2267 19.8157 39.2383C20.9998 39.2499 21.9888 36.283 22.0246 32.6115Z" fill="#FF6B2C"/>
<path d="M15.1577 31.7777C17.173 28.7086 18.0043 25.6937 17.0145 25.0438C16.0247 24.3939 13.5886 26.355 11.5734 29.4241C9.55809 32.4933 8.72681 35.5081 9.71657 36.1581C10.7064 36.808 13.1424 34.8469 15.1577 31.7777Z" fill="#FF6B2C"/>
<path d="M9.82346 27.3744C13.1782 25.8822 15.5075 23.7955 15.0263 22.7136C14.5451 21.6316 11.4355 21.9643 8.08074 23.4565C4.72605 24.9487 2.39667 27.0354 2.87791 28.1173C3.35914 29.1992 6.46877 28.8666 9.82346 27.3744Z" fill="#FF6B2C"/>
<path d="M14.6236 19.6795C14.8037 18.5092 12.008 17.1076 8.37917 16.5491C4.75028 15.9905 1.66249 16.4865 1.48236 17.6568C1.30223 18.8272 4.09797 20.2286 7.72684 20.7872C11.3557 21.3457 14.4435 20.8497 14.6236 19.6795Z" fill="#FF6B2C"/>
<path d="M15.9266 16.8917C16.7107 16.0045 15.1162 13.3142 12.3651 10.8827C9.61393 8.4513 6.74803 7.1995 5.96388 8.08674C5.17974 8.97401 6.7743 11.6643 9.52545 14.0958C12.2766 16.5272 15.1425 17.779 15.9266 16.8917Z" fill="#FF6B2C"/>
<path d="M18.521 15.2623C19.6604 14.9399 19.7736 11.8146 18.7739 8.2817C17.7742 4.74883 16.0401 2.14624 14.9008 2.46865C13.7614 2.79106 13.6482 5.91637 14.6479 9.44927C15.6476 12.9821 17.3816 15.5847 18.521 15.2623Z" fill="#FF6B2C"/>
<path d="M25.5668 9.55921C26.636 6.04673 26.5845 2.91979 25.4517 2.57498C24.3189 2.23017 22.5338 4.79805 21.4646 8.31053C20.3955 11.823 20.447 14.9499 21.5798 15.2947C22.7126 15.6395 24.4977 13.0717 25.5668 9.55921Z" fill="#FF6B2C"/>
<path d="M30.6011 14.3053C33.3993 11.9281 35.0461 9.26948 34.2794 8.3671C33.5128 7.4647 30.6229 8.66028 27.8249 11.0374C25.0267 13.4146 23.3799 16.0732 24.1465 16.9756C24.9132 17.878 27.803 16.6825 30.6011 14.3053Z" fill="#FF6B2C"/>
<path d="M32.2656 21.0215C35.9048 20.5347 38.7276 19.1886 38.5706 18.0149C38.4136 16.8413 35.3361 16.2846 31.6969 16.7714C28.0578 17.2583 25.2349 18.6043 25.392 19.778C25.549 20.9516 28.6264 21.5084 32.2656 21.0215Z" fill="#FF6B2C"/>
<path d="M36.9602 28.4528C37.4627 27.3806 35.1749 25.2484 31.8503 23.6903C28.5257 22.1322 25.4232 21.7384 24.9208 22.8105C24.4183 23.8828 26.706 26.015 30.0307 27.5731C33.3552 29.1311 36.4577 29.525 36.9602 28.4528Z" fill="#FF6B2C"/>
<path d="M29.9671 36.364C30.9695 35.7338 30.1978 32.703 28.2435 29.5948C26.2892 26.4866 23.8922 24.4778 22.8898 25.1081C21.8874 25.7383 22.6591 28.769 24.6134 31.8773C26.5678 34.9855 28.9647 36.9943 29.9671 36.364Z" fill="#FF6B2C"/>
</svg>
